<svg xmlns="http://www.w3.org/2000/svg" width="900" height="580" viewBox="0 0 900 580" font-family="'Hiragino Sans','Meiryo','Segoe UI',sans-serif">
<defs>
  <filter id="s" x="-6%" y="-8%" width="112%" height="120%">
    <feDropShadow dx="0" dy="2" stdDeviation="4" flood-color="#BCC7D4" flood-opacity="0.45"/>
  </filter>
</defs>

<rect width="900" height="580" fill="#F1F3F6"/>

<!-- ── Sidebar ── -->
<rect width="200" height="580" fill="#FFFFFF"/>
<line x1="200" y1="0" x2="200" y2="580" stroke="#E8ECF1"/>
<text x="20" y="37" font-size="14" font-weight="bold" fill="#1A1A2E">Keylink Studio</text>

<text x="30" y="72" font-size="13" fill="#4B5563">Dashboard</text>
<!-- レイヤールール ← selected -->
<rect x="8" y="88" width="184" height="34" rx="8" fill="#FEF0EB"/>
<rect x="20" y="98" width="3" height="14" rx="2" fill="#EF5B25"/>
<text x="30" y="110" font-size="13" font-weight="bold" fill="#EF5B25">レイヤールール</text>

<text x="30" y="148" font-size="13" fill="#4B5563">アクション</text>
<text x="30" y="186" font-size="13" fill="#4B5563">時刻同期</text>
<text x="30" y="224" font-size="13" fill="#4B5563">AI 使用量</text>
<text x="30" y="262" font-size="13" fill="#4B5563">キーマップ表示</text>
<text x="30" y="300" font-size="13" fill="#4B5563">デバイス</text>
<text x="30" y="338" font-size="13" fill="#4B5563">設定</text>

<rect x="14" y="540" width="76" height="28" rx="14" fill="#F0F4F8"/>
<rect x="16" y="542" width="36" height="24" rx="12" fill="#EF5B25"/>
<text x="34" y="559" font-size="11" font-weight="bold" fill="white" text-anchor="middle">JP</text>
<text x="76" y="559" font-size="11" fill="#9CA3AF" text-anchor="middle">EN</text>

<!-- ── Content ── -->
<text x="220" y="37" font-size="18" font-weight="bold" fill="#1A1A2E">レイヤールール</text>

<!-- Device selector -->
<rect x="658" y="18" width="222" height="32" rx="8" fill="#FFFFFF" filter="url(#s)"/>
<text x="672" y="38" font-size="12" fill="#374151">hitsuki46</text>
<text x="860" y="38" font-size="10" fill="#9CA3AF" text-anchor="end">▼</text>
<!-- trash icon -->
<rect x="720" y="18" width="32" height="32" rx="8" fill="#FFFFFF" filter="url(#s)"/>
<text x="736" y="39" font-size="14" fill="#9CA3AF" text-anchor="middle">⌫</text>

<!-- Left panel: running apps -->
<rect x="216" y="56" width="242" height="500" rx="12" fill="#FFFFFF" filter="url(#s)"/>
<text x="228" y="78" font-size="12" font-weight="bold" fill="#1A1A2E">起動中のアプリ</text>
<line x1="216" y1="88" x2="458" y2="88" stroke="#F3F4F6"/>

<!-- App: Code.exe (selected) -->
<rect x="220" y="94" width="234" height="48" rx="8" fill="#FEF0EB"/>
<rect x="232" y="102" width="32" height="32" rx="8" fill="#0078D4"/>
<text x="248" y="123" font-size="14" font-weight="bold" fill="white" text-anchor="middle">C</text>
<text x="274" y="116" font-size="13" font-weight="bold" fill="#EF5B25">Code</text>
<text x="274" y="131" font-size="11" fill="#9CA3AF">Code.exe</text>

<!-- App: chrome.exe -->
<rect x="232" y="152" width="32" height="32" rx="8" fill="#34A853"/>
<text x="248" y="173" font-size="14" font-weight="bold" fill="white" text-anchor="middle">G</text>
<text x="274" y="164" font-size="13" fill="#374151">Chrome</text>
<text x="274" y="179" font-size="11" fill="#9CA3AF">chrome.exe</text>

<!-- App: explorer.exe -->
<rect x="232" y="200" width="32" height="32" rx="8" fill="#FFB900"/>
<text x="248" y="221" font-size="14" font-weight="bold" fill="white" text-anchor="middle">E</text>
<text x="274" y="212" font-size="13" fill="#374151">Explorer</text>
<text x="274" y="227" font-size="11" fill="#9CA3AF">explorer.exe</text>

<!-- App: Obsidian -->
<rect x="232" y="248" width="32" height="32" rx="8" fill="#7C3AED"/>
<text x="248" y="269" font-size="14" font-weight="bold" fill="white" text-anchor="middle">O</text>
<text x="274" y="260" font-size="13" fill="#374151">Obsidian</text>
<text x="274" y="275" font-size="11" fill="#9CA3AF">Obsidian.exe</text>

<!-- App: slack -->
<rect x="232" y="296" width="32" height="32" rx="8" fill="#4A154B"/>
<text x="248" y="317" font-size="14" font-weight="bold" fill="white" text-anchor="middle">S</text>
<text x="274" y="308" font-size="13" fill="#374151">Slack</text>
<text x="274" y="323" font-size="11" fill="#9CA3AF">slack.exe</text>

<!-- Right panel: rules -->
<rect x="466" y="56" width="414" height="500" rx="12" fill="#FFFFFF" filter="url(#s)"/>
<text x="478" y="78" font-size="12" font-weight="bold" fill="#1A1A2E">ルール</text>

<!-- Layer chip selector -->
<text x="478" y="108" font-size="11" fill="#9CA3AF">レイヤー</text>
<!-- Chips: 0..7 (Layer 2 = 凹 selected) -->
<rect x="478" y="114" width="28" height="24" rx="12" fill="#F3F4F6"/>
<text x="492" y="131" font-size="11" fill="#6B7280" text-anchor="middle">0</text>
<rect x="510" y="114" width="28" height="24" rx="12" fill="#F3F4F6"/>
<text x="524" y="131" font-size="11" fill="#6B7280" text-anchor="middle">1</text>
<!-- Layer 2 selected (凹) -->
<rect x="542" y="114" width="28" height="24" rx="12" fill="#E8ECF1"/>
<text x="556" y="131" font-size="11" font-weight="bold" fill="#EF5B25" text-anchor="middle">2</text>
<rect x="574" y="114" width="28" height="24" rx="12" fill="#F3F4F6"/>
<text x="588" y="131" font-size="11" fill="#6B7280" text-anchor="middle">3</text>
<rect x="606" y="114" width="28" height="24" rx="12" fill="#F3F4F6"/>
<text x="620" y="131" font-size="11" fill="#6B7280" text-anchor="middle">4</text>
<rect x="638" y="114" width="28" height="24" rx="12" fill="#F3F4F6"/>
<text x="652" y="131" font-size="11" fill="#6B7280" text-anchor="middle">5</text>
<rect x="670" y="114" width="28" height="24" rx="12" fill="#F3F4F6"/>
<text x="684" y="131" font-size="11" fill="#6B7280" text-anchor="middle">6</text>
<rect x="702" y="114" width="28" height="24" rx="12" fill="#F3F4F6"/>
<text x="716" y="131" font-size="11" fill="#6B7280" text-anchor="middle">7</text>

<!-- 追加 button -->
<rect x="744" y="112" width="120" height="28" rx="14" fill="#EF5B25"/>
<text x="804" y="131" font-size="12" font-weight="bold" fill="white" text-anchor="middle">追加</text>

<line x1="466" y1="148" x2="880" y2="148" stroke="#F3F4F6"/>

<!-- Rule card: Code.exe → Layer 2 -->
<rect x="478" y="158" width="390" height="62" rx="10" fill="#F8F9FA"/>
<rect x="490" y="170" width="32" height="32" rx="8" fill="#0078D4"/>
<text x="506" y="191" font-size="14" font-weight="bold" fill="white" text-anchor="middle">C</text>
<text x="532" y="183" font-size="13" font-weight="bold" fill="#1A1A2E">Code.exe</text>
<text x="532" y="198" font-size="11" fill="#9CA3AF">前面になったとき</text>
<text x="720" y="188" font-size="11" fill="#9CA3AF" text-anchor="middle">→</text>
<rect x="742" y="170" width="54" height="22" rx="11" fill="#FEF0EB"/>
<text x="769" y="185" font-size="11" font-weight="bold" fill="#EF5B25" text-anchor="middle">Layer 2</text>
<!-- trash -->
<text x="848" y="192" font-size="14" fill="#D1D5DB" text-anchor="middle">⌫</text>

<!-- Rule card: chrome.exe → Layer 1 -->
<rect x="478" y="228" width="390" height="62" rx="10" fill="#F8F9FA"/>
<rect x="490" y="240" width="32" height="32" rx="8" fill="#34A853"/>
<text x="506" y="261" font-size="14" font-weight="bold" fill="white" text-anchor="middle">G</text>
<text x="532" y="253" font-size="13" font-weight="bold" fill="#1A1A2E">chrome.exe</text>
<text x="532" y="268" font-size="11" fill="#9CA3AF">前面になったとき</text>
<text x="720" y="258" font-size="11" fill="#9CA3AF" text-anchor="middle">→</text>
<rect x="742" y="240" width="54" height="22" rx="11" fill="#FEF0EB"/>
<text x="769" y="255" font-size="11" font-weight="bold" fill="#EF5B25" text-anchor="middle">Layer 1</text>
<text x="848" y="262" font-size="14" fill="#D1D5DB" text-anchor="middle">⌫</text>

<!-- Rule card: Obsidian → Layer 3 -->
<rect x="478" y="298" width="390" height="62" rx="10" fill="#F8F9FA"/>
<rect x="490" y="310" width="32" height="32" rx="8" fill="#7C3AED"/>
<text x="506" y="331" font-size="14" font-weight="bold" fill="white" text-anchor="middle">O</text>
<text x="532" y="323" font-size="13" font-weight="bold" fill="#1A1A2E">Obsidian.exe</text>
<text x="532" y="338" font-size="11" fill="#9CA3AF">前面になったとき</text>
<text x="720" y="328" font-size="11" fill="#9CA3AF" text-anchor="middle">→</text>
<rect x="742" y="310" width="54" height="22" rx="11" fill="#FEF0EB"/>
<text x="769" y="325" font-size="11" font-weight="bold" fill="#EF5B25" text-anchor="middle">Layer 3</text>
<text x="848" y="332" font-size="14" fill="#D1D5DB" text-anchor="middle">⌫</text>

<!-- 未一致時の動作 -->
<rect x="478" y="370" width="390" height="50" rx="10" fill="#F8F9FA"/>
<text x="494" y="390" font-size="11" fill="#9CA3AF">未一致時</text>
<text x="560" y="390" font-size="12" fill="#374151">アプリレイヤーを解除</text>
</svg>
