<svg xmlns="http://www.w3.org/2000/svg" width="900" height="580" viewBox="0 0 900 580" font-family="'Hiragino Sans','Meiryo','Segoe UI',sans-serif">
<defs>
  <filter id="s" x="-6%" y="-8%" width="112%" height="120%">
    <feDropShadow dx="0" dy="2" stdDeviation="4" flood-color="#BCC7D4" flood-opacity="0.45"/>
  </filter>
</defs>
<rect width="900" height="580" fill="#F1F3F6"/>

<!-- Sidebar -->
<rect width="200" height="580" fill="#FFFFFF"/>
<line x1="200" y1="0" x2="200" y2="580" stroke="#E8ECF1"/>
<text x="20" y="37" font-size="14" font-weight="bold" fill="#1A1A2E">Keylink Studio</text>
<text x="30" y="72" font-size="13" fill="#4B5563">デバイス</text>
<text x="30" y="110" font-size="13" fill="#4B5563">レイヤールール</text>
<text x="30" y="148" font-size="13" fill="#4B5563">アクション</text>
<text x="30" y="186" font-size="13" fill="#4B5563">時刻同期</text>
<text x="30" y="224" font-size="13" fill="#4B5563">AI 使用量</text>
<!-- キーマップ表示 selected -->
<rect x="8" y="240" width="184" height="34" rx="8" fill="#FEF0EB"/>
<rect x="20" y="250" width="3" height="14" rx="2" fill="#EF5B25"/>
<text x="30" y="262" font-size="13" font-weight="bold" fill="#EF5B25">キーマップ表示</text>
<text x="30" y="300" font-size="13" fill="#4B5563">設定</text>
<rect x="14" y="540" width="76" height="28" rx="14" fill="#F0F4F8"/>
<rect x="16" y="542" width="36" height="24" rx="12" fill="#EF5B25"/>
<text x="34" y="559" font-size="11" font-weight="bold" fill="white" text-anchor="middle">JP</text>
<text x="76" y="559" font-size="11" fill="#9CA3AF" text-anchor="middle">EN</text>

<!-- Header -->
<text x="220" y="33" font-size="18" font-weight="bold" fill="#1A1A2E">キーマップ表示</text>
<rect x="606" y="17" width="80" height="34" rx="17" fill="#FFFFFF" stroke="#E5E7EB"/>
<text x="646" y="39" font-size="11" fill="#4B5563" text-anchor="middle">Export</text>
<rect x="694" y="17" width="80" height="34" rx="17" fill="#FFFFFF" stroke="#E5E7EB"/>
<text x="734" y="39" font-size="11" fill="#4B5563" text-anchor="middle">Restore</text>
<rect x="782" y="17" width="98" height="34" rx="17" fill="#FFFFFF" filter="url(#s)"/>
<text x="831" y="39" font-size="11" fill="#4B5563" text-anchor="middle">↻ 更新</text>

<!-- Studio devices: horizontal panel above viewer -->
<rect x="216" y="62" width="664" height="98" rx="12" fill="#FFFFFF" filter="url(#s)"/>
<rect x="228" y="74" width="252" height="72" rx="16" fill="#E8ECF1"/>
<text x="242" y="99" font-size="13" font-weight="bold" fill="#EF5B25">hitsuki46</text>
<rect x="390" y="84" width="34" height="20" rx="10" fill="#FFFFFF"/>
<text x="407" y="98" font-size="9" fill="#6B7280" text-anchor="middle">USB</text>
<rect x="430" y="84" width="38" height="20" rx="10" fill="#FEF0EB"/>
<text x="449" y="98" font-size="9" fill="#EF5B25" text-anchor="middle">編集可</text>
<text x="242" y="125" font-size="10" fill="#9CA3AF">COM7</text>
<rect x="488" y="74" width="252" height="72" rx="16" fill="#FFFFFF" stroke="#E5E7EB"/>
<text x="502" y="99" font-size="13" fill="#374151">kb60</text>
<rect x="690" y="84" width="38" height="20" rx="10" fill="#FEF0EB"/>
<text x="709" y="98" font-size="9" fill="#EF5B25" text-anchor="middle">編集可</text>
<text x="502" y="125" font-size="10" fill="#9CA3AF">BLE Studio</text>

<!-- Viewer -->
<rect x="216" y="172" width="664" height="376" rx="12" fill="#FFFFFF" filter="url(#s)"/>
<line x1="228" y1="218" x2="868" y2="218" stroke="#F1F3F6"/>
<rect x="230" y="182" width="92" height="28" rx="14" fill="#E8ECF1"/>
<text x="276" y="201" font-size="11" font-weight="bold" fill="#EF5B25" text-anchor="middle">キーマップ</text>
<text x="360" y="201" font-size="11" fill="#9CA3AF" text-anchor="middle">Combo</text>
<text x="438" y="201" font-size="11" fill="#9CA3AF" text-anchor="middle">ヒートマップ</text>
<text x="526" y="201" font-size="11" fill="#9CA3AF" text-anchor="middle">テスター</text>

<!-- Layers and edit -->
<text x="232" y="244" font-size="10" fill="#9CA3AF">レイヤー</text>
<rect x="232" y="252" width="42" height="26" rx="13" fill="#F3F4F6"/>
<text x="253" y="270" font-size="11" fill="#6B7280" text-anchor="middle">0</text>
<rect x="280" y="252" width="42" height="26" rx="13" fill="#E8ECF1"/>
<text x="301" y="270" font-size="11" font-weight="bold" fill="#EF5B25" text-anchor="middle">1</text>
<circle cx="319" cy="254" r="5" fill="#EF5B25"/>
<rect x="328" y="252" width="42" height="26" rx="13" fill="#F3F4F6"/>
<text x="349" y="270" font-size="11" fill="#6B7280" text-anchor="middle">2</text>
<rect x="798" y="244" width="66" height="30" rx="15" fill="#EF5B25"/>
<text x="831" y="264" font-size="11" font-weight="bold" fill="#FFFFFF" text-anchor="middle">編集</text>

<!-- Simplified keyboard -->
<rect x="232" y="292" width="632" height="202" rx="14" fill="#EAEEF3"/>
<g fill="#FFFFFF" stroke="#E5E7EB" stroke-width="0.5" font-size="9" font-family="'Courier New',Consolas,monospace" text-anchor="middle">
  <rect x="246" y="306" width="48" height="32" rx="6"/><text x="270" y="326" fill="#1A1A2E">ESC</text>
  <rect x="300" y="306" width="48" height="32" rx="6"/><text x="324" y="326" fill="#1A1A2E">1</text>
  <rect x="354" y="306" width="48" height="32" rx="6"/><text x="378" y="326" fill="#1A1A2E">2</text>
  <rect x="408" y="306" width="48" height="32" rx="6"/><text x="432" y="326" fill="#1A1A2E">3</text>
  <rect x="462" y="306" width="48" height="32" rx="6"/><text x="486" y="326" fill="#1A1A2E">4</text>
  <rect x="516" y="306" width="48" height="32" rx="6"/><text x="540" y="326" fill="#1A1A2E">5</text>
  <rect x="570" y="306" width="48" height="32" rx="6"/><text x="594" y="326" fill="#1A1A2E">6</text>
  <rect x="624" y="306" width="48" height="32" rx="6"/><text x="648" y="326" fill="#1A1A2E">7</text>
  <rect x="678" y="306" width="48" height="32" rx="6"/><text x="702" y="326" fill="#1A1A2E">8</text>
  <rect x="732" y="306" width="116" height="32" rx="6"/><text x="790" y="326" fill="#1A1A2E">BSPC</text>
  <rect x="246" y="344" width="70" height="32" rx="6"/><text x="281" y="364" fill="#1A1A2E">TAB</text>
  <rect x="322" y="344" width="48" height="32" rx="6"/><text x="346" y="364" fill="#1A1A2E">Q</text>
  <rect x="376" y="344" width="48" height="32" rx="6"/><text x="400" y="364" fill="#1A1A2E">W</text>
  <rect x="430" y="344" width="48" height="32" rx="6"/><text x="454" y="364" fill="#1A1A2E">E</text>
  <rect x="484" y="344" width="48" height="32" rx="6"/><text x="508" y="364" fill="#1A1A2E">R</text>
  <rect x="538" y="344" width="48" height="32" rx="6"/><text x="562" y="364" fill="#1A1A2E">T</text>
  <rect x="592" y="344" width="48" height="32" rx="6"/><text x="616" y="364" fill="#1A1A2E">Y</text>
  <rect x="646" y="344" width="48" height="32" rx="6"/><text x="670" y="364" fill="#1A1A2E">U</text>
  <rect x="700" y="344" width="48" height="32" rx="6"/><text x="724" y="364" fill="#1A1A2E">I</text>
  <rect x="754" y="344" width="94" height="32" rx="6"/><text x="801" y="364" fill="#1A1A2E">ENTER</text>
  <rect x="246" y="382" width="92" height="32" rx="6"/><text x="292" y="402" fill="#1A1A2E">LCTRL</text>
  <rect x="344" y="382" width="48" height="32" rx="6"/><text x="368" y="402" fill="#1A1A2E">A</text>
  <rect x="398" y="382" width="48" height="32" rx="6"/><text x="422" y="402" fill="#1A1A2E">S</text>
  <rect x="452" y="382" width="48" height="32" rx="6"/><text x="476" y="402" fill="#1A1A2E">D</text>
  <rect x="506" y="382" width="48" height="32" rx="6"/><text x="530" y="402" fill="#1A1A2E">F</text>
  <rect x="560" y="382" width="48" height="32" rx="6"/><text x="584" y="402" fill="#1A1A2E">G</text>
  <rect x="614" y="382" width="48" height="32" rx="6"/><text x="638" y="402" fill="#1A1A2E">H</text>
  <rect x="668" y="382" width="48" height="32" rx="6"/><text x="692" y="402" fill="#1A1A2E">J</text>
  <rect x="722" y="382" width="48" height="32" rx="6"/><text x="746" y="402" fill="#1A1A2E">K</text>
  <rect x="776" y="382" width="72" height="32" rx="6"/><text x="812" y="402" fill="#1A1A2E">L</text>
  <rect x="246" y="420" width="92" height="32" rx="6"/><text x="292" y="440" fill="#1A1A2E">LSFT</text>
  <rect x="344" y="420" width="48" height="32" rx="6"/><text x="368" y="440" fill="#1A1A2E">Z</text>
  <rect x="398" y="420" width="48" height="32" rx="6"/><text x="422" y="440" fill="#1A1A2E">X</text>
  <rect x="452" y="420" width="48" height="32" rx="6"/><text x="476" y="440" fill="#1A1A2E">C</text>
  <rect x="506" y="420" width="48" height="32" rx="6"/><text x="530" y="440" fill="#1A1A2E">V</text>
  <rect x="560" y="420" width="48" height="32" rx="6"/><text x="584" y="440" fill="#1A1A2E">B</text>
  <rect x="614" y="420" width="48" height="32" rx="6"/><text x="638" y="440" fill="#1A1A2E">N</text>
  <rect x="668" y="420" width="48" height="32" rx="6"/><text x="692" y="440" fill="#1A1A2E">M</text>
  <rect x="722" y="420" width="126" height="32" rx="6"/><text x="785" y="440" fill="#1A1A2E">SPACE</text>
</g>
<circle cx="238" cy="518" r="5" fill="#EF5B25"/>
<text x="248" y="522" font-size="10" fill="#9CA3AF">キーボードのアクティブレイヤー</text>
</svg>
