<svg xmlns="http://www.w3.org/2000/svg" width="900" height="580" viewBox="0 0 900 580" font-family="'Hiragino Sans','Meiryo','Segoe UI',sans-serif">
<defs>
  <filter id="s" x="-6%" y="-8%" width="112%" height="120%">
    <feDropShadow dx="0" dy="2" stdDeviation="4" flood-color="#BCC7D4" flood-opacity="0.45"/>
  </filter>
</defs>
<rect width="900" height="580" fill="#F1F3F6"/>

<!-- Sidebar -->
<rect width="200" height="580" fill="#FFFFFF"/>
<line x1="200" y1="0" x2="200" y2="580" stroke="#E8ECF1"/>
<text x="20" y="37" font-size="14" font-weight="bold" fill="#1A1A2E">Keylink Studio</text>
<!-- デバイス selected -->
<rect x="8" y="50" width="184" height="34" rx="8" fill="#FEF0EB"/>
<rect x="20" y="60" width="3" height="14" rx="2" fill="#EF5B25"/>
<text x="30" y="72" font-size="13" font-weight="bold" fill="#EF5B25">デバイス</text>
<text x="30" y="110" font-size="13" fill="#4B5563">レイヤールール</text>
<text x="30" y="148" font-size="13" fill="#4B5563">アクション</text>
<text x="30" y="186" font-size="13" fill="#4B5563">時刻同期</text>
<text x="30" y="224" font-size="13" fill="#4B5563">AI 使用量</text>
<text x="30" y="262" font-size="13" fill="#4B5563">キーマップ表示</text>
<text x="30" y="300" font-size="13" fill="#4B5563">設定</text>
<rect x="14" y="540" width="76" height="28" rx="14" fill="#F0F4F8"/>
<rect x="16" y="542" width="36" height="24" rx="12" fill="#EF5B25"/>
<text x="34" y="559" font-size="11" font-weight="bold" fill="white" text-anchor="middle">JP</text>
<text x="76" y="559" font-size="11" fill="#9CA3AF" text-anchor="middle">EN</text>

<!-- Header -->
<text x="220" y="33" font-size="18" font-weight="bold" fill="#1A1A2E">デバイス</text>
<text x="220" y="49" font-size="10" fill="#9CA3AF">接続状態と利用可能な機能を確認します</text>
<rect x="760" y="17" width="120" height="34" rx="17" fill="#FFFFFF" filter="url(#s)"/>
<text x="820" y="39" font-size="12" font-weight="bold" fill="#374151" text-anchor="middle">▶ 監視開始</text>

<!-- Summary and scan -->
<rect x="216" y="62" width="664" height="58" rx="12" fill="#FFFFFF" filter="url(#s)"/>
<text x="234" y="84" font-size="10" fill="#9CA3AF">接続中</text>
<text x="234" y="105" font-size="17" font-weight="bold" fill="#1A1A2E">2 台</text>
<rect x="756" y="74" width="106" height="34" rx="17" fill="#FFFFFF" stroke="#E5E7EB"/>
<text x="809" y="96" font-size="12" fill="#4B5563" text-anchor="middle">↻ スキャン</text>

<!-- Device card -->
<rect x="216" y="132" width="664" height="222" rx="12" fill="#FFFFFF" filter="url(#s)"/>
<rect x="234" y="150" width="48" height="48" rx="12" fill="#F1F3F6"/>
<text x="258" y="180" font-size="20" text-anchor="middle">⌨</text>
<text x="296" y="164" font-size="15" font-weight="bold" fill="#1A1A2E">hitsuki46</text>
<text x="296" y="184" font-size="11" fill="#6B7280">USB / Bluetooth　 C 100%　P1 82%</text>
<rect x="296" y="198" width="92" height="23" rx="12" fill="#FEF0EB"/>
<text x="342" y="214" font-size="10" font-weight="bold" fill="#EF5B25" text-anchor="middle">Host Link 接続済み</text>
<rect x="396" y="198" width="92" height="23" rx="12" fill="#FEF0EB"/>
<text x="442" y="214" font-size="10" font-weight="bold" fill="#EF5B25" text-anchor="middle">Studio 編集可能</text>
<rect x="296" y="234" width="76" height="22" rx="11" fill="#F1F3F6"/>
<text x="334" y="249" font-size="10" fill="#4B5563" text-anchor="middle">レイヤー切替</text>
<rect x="380" y="234" width="68" height="22" rx="11" fill="#F1F3F6"/>
<text x="414" y="249" font-size="10" fill="#4B5563" text-anchor="middle">キーマップ</text>
<rect x="456" y="234" width="62" height="22" rx="11" fill="#F1F3F6"/>
<text x="487" y="249" font-size="10" fill="#4B5563" text-anchor="middle">時刻同期</text>
<rect x="526" y="234" width="66" height="22" rx="11" fill="#F1F3F6"/>
<text x="559" y="249" font-size="10" fill="#4B5563" text-anchor="middle">AI 使用量</text>
<rect x="600" y="234" width="70" height="22" rx="11" fill="#F1F3F6"/>
<text x="635" y="249" font-size="10" fill="#4B5563" text-anchor="middle">バッテリー</text>
<line x1="216" y1="310" x2="880" y2="310" stroke="#F1F3F6"/>
<text x="236" y="337" font-size="11" fill="#6B7280">› 詳細</text>

<!-- Activity log -->
<rect x="216" y="366" width="664" height="174" rx="12" fill="#FFFFFF" filter="url(#s)"/>
<text x="234" y="392" font-size="13" font-weight="bold" fill="#1A1A2E">直近ログ</text>
<text x="858" y="392" font-size="10" fill="#9CA3AF" text-anchor="end">3 件</text>
<line x1="216" y1="404" x2="880" y2="404" stroke="#F1F3F6"/>
<text x="234" y="430" font-size="10" fill="#9CA3AF">12:43:08</text>
<text x="306" y="430" font-size="11" fill="#374151">デバイス接続: hitsuki46 (USB / Bluetooth)</text>
<text x="234" y="464" font-size="10" fill="#9CA3AF">12:43:04</text>
<text x="306" y="464" font-size="11" fill="#374151">Host Link verification 成功</text>
<text x="234" y="498" font-size="10" fill="#9CA3AF">12:42:58</text>
<text x="306" y="498" font-size="11" fill="#374151">デバイスをスキャンしました</text>
</svg>
