<svg xmlns="http://www.w3.org/2000/svg" width="900" height="580" viewBox="0 0 900 580" font-family="'Hiragino Sans','Meiryo','Segoe UI',sans-serif">
<defs>
  <filter id="s" x="-6%" y="-8%" width="112%" height="120%">
    <feDropShadow dx="0" dy="2" stdDeviation="4" flood-color="#BCC7D4" flood-opacity="0.45"/>
  </filter>
</defs>

<rect width="900" height="580" fill="#F1F3F6"/>

<!-- ── Sidebar ── -->
<rect width="200" height="580" fill="#FFFFFF"/>
<line x1="200" y1="0" x2="200" y2="580" stroke="#E8ECF1"/>
<text x="20" y="37" font-size="14" font-weight="bold" fill="#1A1A2E">Keylink Studio</text>

<text x="30" y="72" font-size="13" fill="#4B5563">Dashboard</text>
<text x="30" y="110" font-size="13" fill="#4B5563">レイヤールール</text>
<text x="30" y="148" font-size="13" fill="#4B5563">アクション</text>
<text x="30" y="186" font-size="13" fill="#4B5563">時刻同期</text>
<text x="30" y="224" font-size="13" fill="#4B5563">AI 使用量</text>
<text x="30" y="262" font-size="13" fill="#4B5563">キーマップ表示</text>
<!-- デバイス ← selected -->
<rect x="8" y="278" width="184" height="34" rx="8" fill="#FEF0EB"/>
<rect x="20" y="288" width="3" height="14" rx="2" fill="#EF5B25"/>
<text x="30" y="300" font-size="13" font-weight="bold" fill="#EF5B25">デバイス</text>

<text x="30" y="338" font-size="13" fill="#4B5563">設定</text>

<rect x="14" y="540" width="76" height="28" rx="14" fill="#F0F4F8"/>
<rect x="16" y="542" width="36" height="24" rx="12" fill="#EF5B25"/>
<text x="34" y="559" font-size="11" font-weight="bold" fill="white" text-anchor="middle">JP</text>
<text x="76" y="559" font-size="11" fill="#9CA3AF" text-anchor="middle">EN</text>

<!-- ── Content ── -->
<text x="220" y="37" font-size="18" font-weight="bold" fill="#1A1A2E">デバイス</text>

<!-- Device card 1: hitsuki46 (Host Link + Studio) -->
<rect x="216" y="56" width="664" height="226" rx="12" fill="#FFFFFF" filter="url(#s)"/>

<!-- Keyboard icon placeholder -->
<rect x="232" y="76" width="52" height="52" rx="12" fill="#F1F3F6"/>
<text x="258" y="107" font-size="22" text-anchor="middle">⌨</text>

<text x="296" y="96" font-size="15" font-weight="bold" fill="#1A1A2E">hitsuki46</text>
<text x="296" y="114" font-size="11" fill="#9CA3AF">USB HID · VID 0x0000 / PID 0x0001</text>

<!-- Host Link OK badge -->
<rect x="296" y="122" width="80" height="22" rx="11" fill="#FEF0EB"/>
<text x="336" y="137" font-size="11" font-weight="bold" fill="#EF5B25" text-anchor="middle">Host Link v1</text>
<!-- ZMK Studio OK badge -->
<rect x="384" y="122" width="80" height="22" rx="11" fill="#FEF0EB"/>
<text x="424" y="137" font-size="11" font-weight="bold" fill="#EF5B25" text-anchor="middle">ZMK Studio</text>

<line x1="232" y1="158" x2="864" y2="158" stroke="#F3F4F6"/>

<!-- Capabilities row -->
<text x="232" y="180" font-size="11" fill="#9CA3AF">Capabilities</text>
<rect x="318" y="168" width="76" height="20" rx="10" fill="#F3F4F6"/>
<text x="356" y="182" font-size="10" fill="#6B7280" text-anchor="middle">APP_LAYER</text>
<rect x="400" y="168" width="72" height="20" rx="10" fill="#F3F4F6"/>
<text x="436" y="182" font-size="10" fill="#6B7280" text-anchor="middle">TIME_SYNC</text>
<rect x="478" y="168" width="68" height="20" rx="10" fill="#F3F4F6"/>
<text x="512" y="182" font-size="10" fill="#6B7280" text-anchor="middle">AI_USAGE</text>
<rect x="552" y="168" width="74" height="20" rx="10" fill="#F3F4F6"/>
<text x="589" y="182" font-size="10" fill="#6B7280" text-anchor="middle">BATTERY</text>
<rect x="632" y="168" width="74" height="20" rx="10" fill="#F3F4F6"/>
<text x="669" y="182" font-size="10" fill="#6B7280" text-anchor="middle">HOST_ACTION</text>
<rect x="712" y="168" width="72" height="20" rx="10" fill="#F3F4F6"/>
<text x="748" y="182" font-size="10" fill="#6B7280" text-anchor="middle">KEY_STATS</text>
<rect x="790" y="168" width="70" height="20" rx="10" fill="#F3F4F6"/>
<text x="825" y="182" font-size="10" fill="#6B7280" text-anchor="middle">LAYER_STATE</text>

<line x1="232" y1="200" x2="864" y2="200" stroke="#F3F4F6"/>

<!-- Battery row -->
<text x="232" y="222" font-size="11" fill="#9CA3AF">バッテリー</text>
<!-- Central/self 92% -->
<rect x="318" y="210" width="60" height="22" rx="11" fill="#F3F4F6"/>
<text x="348" y="225" font-size="11" fill="#374151" text-anchor="middle">C:92%</text>
<!-- Peripheral 1 82% -->
<text x="392" y="225" font-size="11" fill="#9CA3AF">P1</text>
<text x="410" y="225" font-size="12" font-weight="bold" fill="#1A1A2E">82%</text>
<!-- Peripheral 2 79% -->
<text x="458" y="225" font-size="11" fill="#9CA3AF">P2</text>
<text x="476" y="225" font-size="12" font-weight="bold" fill="#1A1A2E">79%</text>

<!-- Device card 2: kb60 (Host Link only) -->
<rect x="216" y="296" width="664" height="152" rx="12" fill="#FFFFFF" filter="url(#s)"/>

<rect x="232" y="316" width="52" height="52" rx="12" fill="#F1F3F6"/>
<text x="258" y="347" font-size="22" text-anchor="middle">⌨</text>

<text x="296" y="336" font-size="15" font-weight="bold" fill="#1A1A2E">kb60</text>
<text x="296" y="354" font-size="11" fill="#9CA3AF">USB HID · VID 0x0000 / PID 0x0002</text>

<!-- Host Link OK badge -->
<rect x="296" y="362" width="80" height="22" rx="11" fill="#FEF0EB"/>
<text x="336" y="377" font-size="11" font-weight="bold" fill="#EF5B25" text-anchor="middle">Host Link v1</text>
<!-- ZMK Studio N/A badge -->
<rect x="384" y="362" width="80" height="22" rx="11" fill="#F3F4F6"/>
<text x="424" y="377" font-size="11" fill="#9CA3AF" text-anchor="middle">Studio N/A</text>

<line x1="232" y1="398" x2="864" y2="398" stroke="#F3F4F6"/>

<!-- Capabilities row -->
<text x="232" y="420" font-size="11" fill="#9CA3AF">Capabilities</text>
<rect x="318" y="408" width="76" height="20" rx="10" fill="#F3F4F6"/>
<text x="356" y="422" font-size="10" fill="#6B7280" text-anchor="middle">APP_LAYER</text>
<rect x="400" y="408" width="72" height="20" rx="10" fill="#F3F4F6"/>
<text x="436" y="422" font-size="10" fill="#6B7280" text-anchor="middle">TIME_SYNC</text>
<rect x="478" y="408" width="68" height="20" rx="10" fill="#F3F4F6"/>
<text x="512" y="422" font-size="10" fill="#6B7280" text-anchor="middle">AI_USAGE</text>
</svg>
