<svg xmlns='http://www.w3.org/2000/svg' width='1200' height='720' viewBox='0 0 1200 720'>
<defs>
<style>
  .bg{fill:#f3f4f6}.side{fill:#5f789c}.card{fill:#fff;stroke:#d7d7d7;stroke-width:1.5}.muted{fill:#8b95a6}.text{fill:#1f2937;font-family:'Segoe UI','Yu Gothic UI',sans-serif}.title{font-size:24px;font-weight:700}.sub{font-size:14px;fill:#667085}.nav{font-size:15px;fill:#e9eef7;font-weight:600}.label{font-size:13px}.small{font-size:11px}.btn{fill:#5f789c}.btn2{fill:#fff;stroke:#d1d5db}.pill{fill:#e5e7eb}.ok{fill:#bff7d7}.warn{fill:#fff3cd;stroke:#f1c36d}.err{fill:#fff7ed;stroke:#f59e0b}.barbg{fill:#ddd9d2}.barok{fill:#5f789c}.barwarn{fill:#f59e0b}.barerr{fill:#ef4444}.key{fill:#fff;stroke:#d1d5db}.panel{fill:#eeeeee;stroke:#d1d5db}.bluebox{fill:#eff6ff;stroke:#bfdbfe}.selected{fill:#eef3fa;stroke:#b7c3d7}.ghost{fill:#f1f1f1;stroke:#d0d0d0}.mono{font-family:'Segoe UI Mono','Consolas',monospace}
</style>
</defs>
<rect class="bg" x="0" y="0" width="1200" height="720"/>
<rect class="side" x="0" y="0" width="210" height="720"/>
<rect x="20" y="28" width="48" height="48" rx="12" fill="#6f86a8" stroke="#8da0bd"/>
<text class="text nav" x="82" y="59">RawHID Host</text>
<text class="text nav" x="24" y="132">▦  ダッシュボード</text>
<text class="text nav" x="24" y="174">☰  レイヤールール</text>
<text class="text nav" x="24" y="216">◷  時刻同期</text>
<text class="text nav" x="24" y="258">⌁  AI 使用量</text>
<text class="text nav" x="24" y="300">⌨  キーマップ表示</text>
<text class="text nav" x="24" y="342">🔧  デバイス</text>
<text class="text nav" x="24" y="384">⚙  設定</text>
<circle cx="24" cy="682" r="5" fill="#b7c3d7"/><text class="text nav" x="40" y="688">停止中</text>
<text class="text title" x="260" y="64">設定</text><text class="text sub" x="260" y="88">アプリ全体の基本設定を変更します</text><rect class="btn2" x="936" y="42" width="94" height="44" rx="8"/><text class="text" x="966" y="70" font-size="15" font-weight="700">更新</text><rect class="btn" x="1042" y="42" width="88" height="44" rx="8"/><text x="1072" y="70" fill="#fff" font-size="15" font-weight="700">保存</text>
<rect class="card" x="260" y="130" width="640" height="400" rx="12"/><rect x="260" y="130" width="640" height="58" rx="12" fill="#f8fafc"/><text class="text" x="292" y="166" font-size="18" font-weight="700">基本設定</text>
<text class="text label" x="292" y="230">Polling interval</text><text class="text sub" x="292" y="250">前面アプリとデバイスを確認する間隔</text><rect class="btn2" x="650" y="218" width="190" height="36" rx="8"/><text class="text" x="668" y="241" font-size="14">500 ms</text>
<text class="text label" x="292" y="306">Usage Page</text><text class="text sub" x="292" y="326">Raw HID 候補の識別に使います</text><rect class="btn2" x="650" y="294" width="190" height="36" rx="8"/><text class="text mono" x="668" y="317" font-size="14">0xFF60</text>
<text class="text label" x="292" y="382">Usage</text><text class="text sub" x="292" y="402">Raw HID 候補の識別に使います</text><rect class="btn2" x="650" y="370" width="190" height="36" rx="8"/><text class="text mono" x="668" y="393" font-size="14">0x61</text>
<text class="text label" x="292" y="458">HELLO timeout</text><text class="text sub" x="292" y="478">デバイス検証の応答待ち時間</text><rect class="btn2" x="650" y="446" width="190" height="36" rx="8"/><text class="text" x="668" y="469" font-size="14">200 ms</text>
</svg>
