<svg xmlns='http://www.w3.org/2000/svg' width='1200' height='720' viewBox='0 0 1200 720'>
<defs>
<style>
  .bg{fill:#f3f4f6}.side{fill:#5f789c}.card{fill:#fff;stroke:#d7d7d7;stroke-width:1.5}.muted{fill:#8b95a6}.text{fill:#1f2937;font-family:'Segoe UI','Yu Gothic UI',sans-serif}.title{font-size:24px;font-weight:700}.sub{font-size:14px;fill:#667085}.nav{font-size:15px;fill:#e9eef7;font-weight:600}.label{font-size:13px}.small{font-size:11px}.btn{fill:#5f789c}.btn2{fill:#fff;stroke:#d1d5db}.pill{fill:#e5e7eb}.ok{fill:#bff7d7}.warn{fill:#fff3cd;stroke:#f1c36d}.err{fill:#fff7ed;stroke:#f59e0b}.barbg{fill:#ddd9d2}.barok{fill:#5f789c}.barwarn{fill:#f59e0b}.barerr{fill:#ef4444}.key{fill:#fff;stroke:#d1d5db}.panel{fill:#eeeeee;stroke:#d1d5db}.bluebox{fill:#eff6ff;stroke:#bfdbfe}.selected{fill:#eef3fa;stroke:#b7c3d7}.ghost{fill:#f1f1f1;stroke:#d0d0d0}.mono{font-family:'Segoe UI Mono','Consolas',monospace}
</style>
</defs>
<rect class="bg" x="0" y="0" width="1200" height="720"/>
<rect class="side" x="0" y="0" width="210" height="720"/>
<rect x="20" y="28" width="48" height="48" rx="12" fill="#6f86a8" stroke="#8da0bd"/>
<text class="text nav" x="82" y="59">RawHID Host</text>
<text class="text nav" x="24" y="132">▦  ダッシュボード</text>
<text class="text nav" x="24" y="174">☰  レイヤールール</text>
<text class="text nav" x="24" y="216">◷  時刻同期</text>
<text class="text nav" x="24" y="258">⌁  AI 使用量</text>
<text class="text nav" x="24" y="300">⌨  キーマップ表示</text>
<text class="text nav" x="24" y="342">🔧  デバイス</text>
<text class="text nav" x="24" y="384">⚙  設定</text>
<circle cx="24" cy="682" r="5" fill="#b7c3d7"/><text class="text nav" x="40" y="688">停止中</text>
<text class="text title" x="260" y="64">デバイス</text><text class="text sub" x="260" y="88">Host Link と ZMK Studio の対応状態を確認します</text><rect class="btn2" x="1020" y="42" width="98" height="44" rx="8"/><text class="text" x="1050" y="70" font-size="15" font-weight="700">更新</text>
<text class="text" x="260" y="140" font-size="18" font-weight="700">Host Link</text><rect class="card" x="260" y="160" width="860" height="150" rx="12" stroke="#86efac"/><rect x="290" y="190" width="50" height="50" rx="10" fill="#d1fae5"/><text class="text" x="360" y="212" font-size="20" font-weight="700">KeyboardA</text><rect class="ok" x="472" y="194" width="58" height="24" rx="12"/><text class="text small" x="494" y="210" fill="#047857">OK</text><text class="text sub" x="360" y="240">ZMK Project</text><rect class="pill" x="360" y="260" width="110" height="24" rx="8"/><text class="text small" x="378" y="276">VID: 0x0000</text><rect class="pill" x="480" y="260" width="110" height="24" rx="8"/><text class="text small" x="498" y="276">PID: 0x0000</text><rect class="pill" x="600" y="260" width="190" height="24" rx="8"/><text class="text small" x="618" y="276">Capabilities: APP_LAYER</text><rect class="ok" x="805" y="260" width="160" height="24" rx="8"/><text class="text small" x="822" y="276" fill="#047857">App Layer: Supported</text>
<text class="text" x="260" y="360" font-size="18" font-weight="700">ZMK Studio</text><rect class="card" x="260" y="380" width="860" height="170" rx="12"/><text class="text" x="292" y="416" font-size="18" font-weight="700">KeyboardA</text><rect class="ok" x="404" y="398" width="84" height="24" rx="12"/><text class="text small" x="422" y="414" fill="#047857">Supported</text><text class="text sub" x="292" y="446">USB Serial / unlocked</text><text class="text sub" x="292" y="480">Keymap Viewer: Available</text><rect class="ghost" x="292" y="502" width="760" height="1"/><text class="text" x="292" y="532" font-size="16" font-weight="700">KeyboardB</text><rect class="pill" x="404" y="514" width="92" height="24" rx="12"/><text class="text small" x="420" y="530">Not detected</text>
</svg>
