<svg xmlns='http://www.w3.org/2000/svg' width='1200' height='720' viewBox='0 0 1200 720'>
<defs>
<style>
  .bg{fill:#f3f4f6}.side{fill:#5f789c}.card{fill:#fff;stroke:#d7d7d7;stroke-width:1.5}.muted{fill:#8b95a6}.text{fill:#1f2937;font-family:'Segoe UI','Yu Gothic UI',sans-serif}.title{font-size:24px;font-weight:700}.sub{font-size:14px;fill:#667085}.nav{font-size:15px;fill:#e9eef7;font-weight:600}.label{font-size:13px}.small{font-size:11px}.btn{fill:#5f789c}.btn2{fill:#fff;stroke:#d1d5db}.pill{fill:#e5e7eb}.ok{fill:#bff7d7}.warn{fill:#fff3cd;stroke:#f1c36d}.err{fill:#fff7ed;stroke:#f59e0b}.barbg{fill:#ddd9d2}.barok{fill:#5f789c}.barwarn{fill:#f59e0b}.barerr{fill:#ef4444}.key{fill:#fff;stroke:#d1d5db}.panel{fill:#eeeeee;stroke:#d1d5db}.bluebox{fill:#eff6ff;stroke:#bfdbfe}.selected{fill:#eef3fa;stroke:#b7c3d7}.ghost{fill:#f1f1f1;stroke:#d0d0d0}.mono{font-family:'Segoe UI Mono','Consolas',monospace}
</style>
</defs>
<rect class="bg" x="0" y="0" width="1200" height="720"/>
<rect class="side" x="0" y="0" width="210" height="720"/>
<rect x="20" y="28" width="48" height="48" rx="12" fill="#6f86a8" stroke="#8da0bd"/>
<text class="text nav" x="82" y="59">RawHID Host</text>
<text class="text nav" x="24" y="132">▦  ダッシュボード</text>
<text class="text nav" x="24" y="174">☰  レイヤールール</text>
<text class="text nav" x="24" y="216">◷  時刻同期</text>
<text class="text nav" x="24" y="258">⌁  AI 使用量</text>
<text class="text nav" x="24" y="300">⌨  キーマップ表示</text>
<text class="text nav" x="24" y="342">🔧  デバイス</text>
<text class="text nav" x="24" y="384">⚙  設定</text>
<circle cx="24" cy="682" r="5" fill="#b7c3d7"/><text class="text nav" x="40" y="688">停止中</text>
<text class="text title" x="260" y="64">レイヤールール</text><text class="text sub" x="260" y="88">実行中のアプリをクリックして追加</text>
<rect class="btn2" x="790" y="42" width="260" height="40" rx="8"/><text class="text" x="808" y="68" font-size="16">Global fallback</text><text class="text sub" x="1070" y="58">レイヤー</text><text class="text sub" x="1070" y="78">切替</text><rect x="1140" y="50" width="40" height="22" rx="11" fill="#5f789c"/><circle cx="1165" cy="61" r="9" fill="#fff"/>
<rect class="card" x="260" y="120" width="270" height="540" rx="0"/><rect class="btn2" x="282" y="142" width="210" height="38" rx="8"/><text class="text sub" x="306" y="166">検索...</text><rect class="btn2" x="504" y="142" width="40" height="38" rx="8"/><text class="text" x="515" y="167">↻</text>
<rect class="selected" x="280" y="310" width="230" height="58" rx="8"/><rect x="296" y="322" width="40" height="40" rx="8" fill="#6366f1"/><text x="310" y="348" fill="#fff" font-size="20" font-weight="700">C</text><text class="text" x="350" y="338" font-size="17" font-weight="700">Code</text><text class="text sub" x="350" y="358">Code.exe</text>
<text class="text" x="350" y="226" font-size="17" font-weight="700">Browser</text><text class="text sub" x="350" y="246">browser.exe</text><text class="text" x="350" y="282" font-size="17" font-weight="700">Terminal</text><text class="text sub" x="350" y="302">terminal.exe</text><text class="text" x="350" y="420" font-size="17" font-weight="700">Editor</text><text class="text sub" x="350" y="440">editor.exe</text>
<rect class="card" x="530" y="120" width="620" height="540" rx="0"/><rect x="560" y="142" width="48" height="48" rx="8" fill="#6366f1"/><text x="577" y="174" fill="#fff" font-size="24" font-weight="700">C</text><text class="text" x="626" y="162" font-size="18" font-weight="700">Code</text><text class="text sub" x="626" y="186">Code.exe</text><text class="text" x="712" y="172" font-size="16">レイヤー</text><rect class="btn2" x="790" y="148" width="86" height="42" rx="8"/><text class="text" x="818" y="174" font-size="16">L1</text><rect class="btn" x="900" y="148" width="104" height="42" rx="8"/><text x="932" y="174" fill="#fff" font-size="16" font-weight="700">追加</text><text class="text sub" x="780" y="410" text-anchor="middle">ルールがまだありません</text><text class="text sub" x="780" y="440" text-anchor="middle">左のリストからアプリを選んで追加しましょう</text>
</svg>
